<?xml version="1.0" encoding="iso-8859-1"?>
<!-- Generator: Adobe Illustrator 17.1.0, SVG Export Plug-In . SVG Version: 6.00 Build 0)  -->
<!DOCTYPE svg PUBLIC "-//W3C//DTD SVG 1.1//EN" "http://www.w3.org/Graphics/SVG/1.1/DTD/svg11.dtd">
<svg version="1.1" id="Capa_1" xmlns="http://www.w3.org/2000/svg" xmlns:xlink="http://www.w3.org/1999/xlink" x="0px" y="0px"
	 viewBox="0 0 207.133 207.133" style="enable-background:new 0 0 207.133 207.133;" xml:space="preserve">
<path d="M113.692,207.133h-20.25c-4.526,0-8.208-3.682-8.208-8.208v-25.248l-36.7-59.407c-0.011-0.018-0.021-0.035-0.032-0.054
	c-9.594-12.032-15.334-27.266-15.334-43.815c0-38.8,31.552-70.368,70.344-70.399c0.018,0,0.029-0.002,0.056-0.001
	c0.016,0.002,0.037,0.001,0.056,0.001c38.792,0.031,70.344,31.6,70.344,70.399c0,16.55-5.74,31.783-15.334,43.815
	c-0.011,0.019-0.021,0.036-0.032,0.054l-36.7,59.407v25.248C121.9,203.451,118.218,207.133,113.692,207.133z M90.234,175.467v23.458
	c0,1.769,1.439,3.208,3.208,3.208h20.25c1.769,0,3.208-1.439,3.208-3.208v-23.458H115.2c-0.038,0-0.077,0-0.113,0h-23.22
	c-0.037,0-0.074,0-0.113,0H90.234z M97.734,170.467h11.333v-29.88c-1.796,0.14-3.611,0.211-5.442,0.213
	c-0.019,0-0.038,0.001-0.057,0.001h-0.001h-0.001c-0.019,0-0.038-0.001-0.057-0.001c-1.944-0.002-3.87-0.082-5.775-0.239V170.467z
	 M129.249,135.95l-10.177,32.789l25.354-41.04C139.758,131.038,134.667,133.821,129.249,135.95z M62.706,127.699l25.046,40.541
	l-9.873-32.292C72.463,133.819,67.374,131.037,62.706,127.699z M114.067,140.019V168l9.324-30.041
	C120.362,138.849,117.248,139.541,114.067,140.019z M83.72,137.952l9.014,29.479v-27.464
	C89.659,139.491,86.651,138.815,83.72,137.952z M103.581,5.119c-3.917,1.43-26.515,12.012-26.515,65.281
	c0,46.769,21.483,62.12,26.49,65.061c4.99-2.973,26.51-18.504,26.51-65.061C130.067,16.809,107.531,6.509,103.581,5.119z
	 M130.401,10.762c0.354,0.24,0.707,0.484,1.061,0.733c12.551,8.86,27.512,26.272,27.512,58.905
	c0,29.381-14.919,46.954-27.435,56.523c-3.171,2.424-6.334,4.464-9.323,6.168c27.004-8.048,46.751-33.107,46.751-62.691
	C168.966,43.896,153.119,21.024,130.401,10.762z M76.733,10.762C54.014,21.024,38.167,43.896,38.167,70.401
	c0,29.584,19.747,54.644,46.751,62.691c-2.989-1.704-6.152-3.744-9.323-6.168C63.079,117.355,48.16,99.782,48.16,70.401
	c0-32.633,14.961-50.045,27.512-58.905C76.026,11.246,76.379,11.002,76.733,10.762z M118.146,9.637
	c8.19,9.195,16.921,26.932,16.921,60.764c0,31.639-9.371,49.769-17.729,59.646c3.543-1.859,7.436-4.23,11.309-7.207
	c16.805-12.914,25.326-30.558,25.326-52.439c0-24.393-8.486-42.796-25.224-54.699C125.131,13.128,121.494,11.151,118.146,9.637z
	 M88.987,9.637c-3.349,1.514-6.985,3.491-10.604,6.064C61.647,27.605,53.16,46.008,53.16,70.401
	c0,21.882,8.521,39.525,25.326,52.439c3.873,2.977,7.766,5.348,11.309,7.207c-8.357-9.878-17.729-28.008-17.729-59.646
	C72.067,36.569,80.797,18.832,88.987,9.637z"/>
<g>
</g>
<g>
</g>
<g>
</g>
<g>
</g>
<g>
</g>
<g>
</g>
<g>
</g>
<g>
</g>
<g>
</g>
<g>
</g>
<g>
</g>
<g>
</g>
<g>
</g>
<g>
</g>
<g>
</g>
</svg>
