<svg xmlns="http://www.w3.org/2000/svg" viewBox="0 0 207.133 207.133"><path d="M113.692 207.133h-20.25c-4.526 0-8.208-3.682-8.208-8.208v-25.248l-36.7-59.407a2.576 2.576 0 0 1-.032-.054c-9.594-12.032-15.334-27.266-15.334-43.815 0-38.8 31.552-70.368 70.344-70.399.018 0 .029-.002.056-.001.016.002.037.001.056.001 38.792.031 70.344 31.6 70.344 70.399 0 16.55-5.74 31.783-15.334 43.815a2.576 2.576 0 0 1-.032.054l-36.7 59.407v25.248c-.002 4.526-3.684 8.208-8.21 8.208zm-23.458-31.666v23.458a3.212 3.212 0 0 0 3.208 3.208h20.25a3.212 3.212 0 0 0 3.208-3.208v-23.458H90.234zm7.5-5h11.333v-29.88a71.02 71.02 0 0 1-5.442.213l-.057.001h-.002l-.057-.001a71.193 71.193 0 0 1-5.775-.239v29.906zm31.515-34.517l-10.177 32.789 25.354-41.04a70.254 70.254 0 0 1-15.177 8.251zm-66.543-8.251l25.046 40.541-9.873-32.292a70.308 70.308 0 0 1-15.173-8.249zm51.361 12.32V168l9.324-30.041a69.936 69.936 0 0 1-9.324 2.06zm-30.347-2.067l9.014 29.479v-27.464a69.589 69.589 0 0 1-9.014-2.015zM103.581 5.119C99.664 6.549 77.066 17.131 77.066 70.4c0 46.769 21.483 62.12 26.49 65.061 4.99-2.973 26.51-18.504 26.51-65.061.001-53.591-22.535-63.891-26.485-65.281zm26.82 5.643c.354.24.707.484 1.061.733 12.551 8.86 27.512 26.272 27.512 58.905 0 29.381-14.919 46.954-27.435 56.523a83.28 83.28 0 0 1-9.323 6.168c27.004-8.048 46.751-33.107 46.751-62.691-.001-26.504-15.848-49.376-38.566-59.638zm-53.668 0C54.014 21.024 38.167 43.896 38.167 70.401c0 29.584 19.747 54.644 46.751 62.691a83.28 83.28 0 0 1-9.323-6.168C63.079 117.355 48.16 99.782 48.16 70.401c0-32.633 14.961-50.045 27.512-58.905.354-.25.707-.494 1.061-.734zm41.413-1.125c8.19 9.195 16.921 26.932 16.921 60.764 0 31.639-9.371 49.769-17.729 59.646 3.543-1.859 7.436-4.23 11.309-7.207 16.805-12.914 25.326-30.558 25.326-52.439 0-24.393-8.486-42.796-25.224-54.699a63.283 63.283 0 0 0-10.603-6.065zm-29.159 0a63.35 63.35 0 0 0-10.604 6.064C61.647 27.605 53.16 46.008 53.16 70.401c0 21.882 8.521 39.525 25.326 52.439 3.873 2.977 7.766 5.348 11.309 7.207-8.357-9.878-17.729-28.008-17.729-59.646.001-33.832 8.731-51.569 16.921-60.764z"/></svg>